# xmcd
#
# Track frame offsets:
#	150
#	16207
#	40375
#	54612
#	79365
#	97285
#	114370
#	131555
#	146390
#	166065
#
# Disc length: 2473 seconds
# Revision: 4
# Processed by: cddbd v1.5.2PL0 Copyright (c) Steve Scherf et al.
# Submitted via: dBpowerAMP V12.0
#
DISCID=8309a70a
DTITLE=Etta James - Love's Been Rough on me
DYEAR=1997
DGENRE=Soul
TTITLE0=The Rock
TTITLE1=Cry Like a Rainy Day
TTITLE2=Love's Been Rough on me
TTITLE3=Love it or Leave it Alone
TTITLE4=Don't Touch me
TTITLE5=Hold me
TTITLE6=If I Had Any Pride Left at All
TTITLE7=I Can Give You Everything
TTITLE8=I've Been Lovin' You Too Long
TTITLE9=Done in The Dark
EXTD=
EXTT0=
EXTT1=
EXTT2=
EXTT3=
EXTT4=
EXTT5=
EXTT6=
EXTT7=
EXTT8=
EXTT9=
PLAYORDER=
